<svg width="57" height="49" viewBox="0 0 57 49" fill="none" xmlns="http://www.w3.org/2000/svg">
<path d="M43.8771 35.5396C41.5049 33.2945 39.6198 30.6469 38.2219 27.5969C36.824 24.5469 36.125 21.3063 36.125 17.875C36.125 14.4438 36.824 11.2032 38.2219 8.15316C39.6198 5.10316 41.5049 2.45559 43.8771 0.210449L47.8167 4.27712C45.9528 6.01392 44.4913 8.04725 43.4323 10.3771C42.3733 12.707 41.8438 15.2063 41.8438 17.875C41.8438 20.5438 42.3733 23.0643 43.4323 25.4365C44.4913 27.8087 45.9528 29.8632 47.8167 31.6L43.8771 35.5396ZM52.0104 27.4063C50.6549 26.1778 49.5958 24.7481 48.8333 23.1172C48.0708 21.4863 47.6896 19.7389 47.6896 17.875C47.6896 16.0111 48.0708 14.2637 48.8333 12.6328C49.5958 11.0019 50.6549 9.57226 52.0104 8.34378L56.0771 12.4104C55.3146 13.1306 54.7004 13.946 54.2344 14.8568C53.7684 15.7676 53.5354 16.7736 53.5354 17.875C53.5354 18.9764 53.7684 19.9825 54.2344 20.8933C54.7004 21.804 55.3146 22.6195 56.0771 23.3396L52.0104 27.4063ZM20.875 28.0417C18.0792 28.0417 15.6858 27.0462 13.6948 25.0552C11.7038 23.0643 10.7083 20.6709 10.7083 17.875C10.7083 15.0792 11.7038 12.6858 13.6948 10.6948C15.6858 8.70385 18.0792 7.70837 20.875 7.70837C23.6708 7.70837 26.0642 8.70385 28.0552 10.6948C30.0462 12.6858 31.0417 15.0792 31.0417 17.875C31.0417 20.6709 30.0462 23.0643 28.0552 25.0552C26.0642 27.0462 23.6708 28.0417 20.875 28.0417ZM0.541668 48.375V41.2584C0.541668 39.8604 0.901737 38.5473 1.62188 37.3188C2.34202 36.0903 3.3375 35.1584 4.60834 34.5229C6.76875 33.4216 9.20452 32.4896 11.9156 31.7271C14.6267 30.9646 17.6132 30.5834 20.875 30.5834C24.1368 30.5834 27.1233 30.9646 29.8344 31.7271C32.5455 32.4896 34.9813 33.4216 37.1417 34.5229C38.4125 35.1584 39.408 36.0903 40.1281 37.3188C40.8483 38.5473 41.2083 39.8604 41.2083 41.2584V48.375H0.541668ZM5.625 43.2917H36.125V41.2584C36.125 40.7924 36.0085 40.3688 35.7755 39.9875C35.5425 39.6063 35.2354 39.3098 34.8542 39.0979C33.3292 38.3354 31.37 37.5729 28.9766 36.8104C26.5832 36.0479 23.8826 35.6667 20.875 35.6667C17.8674 35.6667 15.1668 36.0479 12.7734 36.8104C10.38 37.5729 8.42084 38.3354 6.89584 39.0979C6.51459 39.3098 6.20747 39.6063 5.97448 39.9875C5.74149 40.3688 5.625 40.7924 5.625 41.2584V43.2917ZM20.875 22.9584C22.2729 22.9584 23.4696 22.4606 24.4651 21.4651C25.4606 20.4697 25.9583 19.2729 25.9583 17.875C25.9583 16.4771 25.4606 15.2804 24.4651 14.2849C23.4696 13.2894 22.2729 12.7917 20.875 12.7917C19.4771 12.7917 18.2804 13.2894 17.2849 14.2849C16.2894 15.2804 15.7917 16.4771 15.7917 17.875C15.7917 19.2729 16.2894 20.4697 17.2849 21.4651C18.2804 22.4606 19.4771 22.9584 20.875 22.9584Z" fill="#FF9900"/>
</svg>
