<svg width="1440" height="796" viewBox="0 0 1440 796" fill="none" xmlns="http://www.w3.org/2000/svg">
<rect width="1464" height="796" fill="#FF9900"/>
<path d="M1231.17 757.279C1281.89 751.372 1333.09 754.713 1384.01 746.362C1416.4 741.025 1449.2 736.829 1480.63 728.356C1532.91 714.26 1581.8 691.61 1625.79 659.712C1658.22 636.206 1690.6 612.66 1717.93 583.247C1745.71 553.346 1762.59 519.289 1770.17 478.632C1774.53 455.289 1770.01 434.35 1767.81 412.514C1763.33 367.906 1751.93 325.091 1729.58 285.575C1704.74 241.66 1668.67 208.988 1624.18 185.36C1578.9 161.325 1529.55 146.863 1481.33 129.916C1448.12 118.265 1415.49 104.414 1381.53 95.4514C1339.94 84.4929 1298.64 72.2715 1255.1 67.9533C1222.38 64.6943 1190.54 63.024 1158.24 68.931C1131.58 73.8195 1104.96 81.7228 1093.59 107.347C1076.22 146.537 1085.14 177.62 1119.76 203.692C1141.11 219.784 1166.37 226.424 1191.04 234.897C1249.58 254.981 1310.37 269.362 1362.41 305.374C1405.33 335.113 1399.85 372.714 1376.67 405.671C1354.2 437.65 1320.53 453.945 1284.54 466.166C1231.17 484.295 1176.07 491.954 1119.92 498.146C1073.44 503.279 1028.12 501.608 982.676 495.946C946.063 491.383 909.989 482.299 874.536 471.625C835.269 459.771 796.914 445.472 759.223 429.543C732.354 418.177 706.189 405.304 679.859 392.757C625.996 367.133 575.202 336.538 524.408 305.863C489.287 284.638 454.125 263.414 420.207 240.438C400.511 227.076 382.889 230.864 365.639 241.66C328.238 265.084 318.95 296.004 322.806 338.453C326.745 381.798 351.707 409.337 385.211 434.594C476.392 503.319 575.866 558.641 675.132 614.656C722.692 641.502 772.492 663.378 823.783 681.588C853.099 691.976 883.12 701.02 913.472 708.883C960.12 720.982 1006.85 731.94 1054.49 739.436C1098.24 746.321 1141.74 754.305 1186.31 754.387C1201.24 754.346 1216.04 758.379 1231.17 757.279Z" fill="#F49300"/>
<path d="M1049.93 473.606C1111.9 469.734 1172.93 465.862 1232.75 450.292C1244.93 447.113 1257.11 442.752 1269.87 441.122C1273.48 440.673 1279.28 440.306 1278.99 434.763C1278.7 428.975 1273.15 430.483 1269.3 429.872C1220.91 422.168 1174.84 407.373 1130.01 387.972C1063.1 359.033 997.972 326.67 933.798 292.351C895.392 271.767 857.401 250.41 819.41 229.133C801.057 218.862 783.201 207.735 764.806 197.504C751.3 189.964 720.145 195.385 709.622 206.471C700.839 215.683 702.454 226.117 715.96 234.106C739.285 247.883 762.9 261.292 787.137 273.439C847.044 303.478 907.241 332.947 967.521 362.253C998.387 377.252 1029.91 390.947 1058.63 409.941C1063.76 413.324 1071.18 416.462 1066.79 423.717C1062.85 430.239 1056.8 424.614 1051.62 423.187C961.39 398.202 880.105 354.142 798.447 310.285C730.295 273.683 665.168 232.027 596.394 196.608C589.103 192.858 581.687 189.352 574.271 185.766C536.363 167.383 517.803 188.782 497.543 218.332C487.849 232.476 491.039 243.155 505.788 254.2C542.702 281.916 583.013 304.293 623.2 327.037C672.335 354.834 723.874 377.7 775.578 399.995C814.439 416.747 854.543 430.769 895.185 443.322C937.568 456.406 980.199 467.044 1024.36 471.528C1033.15 472.465 1041.89 472.995 1049.93 473.606Z" fill="#F49300"/>
</svg>
