<svg width="53" height="44" viewBox="0 0 53 44" fill="none" xmlns="http://www.w3.org/2000/svg">
<path d="M23.9469 26.9542L37.425 13.3L34.0406 9.85625L23.9469 20.1271L18.9 14.9917L15.575 18.375L23.9469 26.9542ZM0.375 43.75V38.9167H52.625V43.75H0.375ZM7.5 36.5C6.19375 36.5 5.07552 36.0267 4.14531 35.0802C3.2151 34.1337 2.75 32.9958 2.75 31.6667V5.08333C2.75 3.75417 3.2151 2.61632 4.14531 1.66979C5.07552 0.723264 6.19375 0.25 7.5 0.25H45.5C46.8062 0.25 47.9245 0.723264 48.8547 1.66979C49.7849 2.61632 50.25 3.75417 50.25 5.08333V31.6667C50.25 32.9958 49.7849 34.1337 48.8547 35.0802C47.9245 36.0267 46.8062 36.5 45.5 36.5H7.5ZM7.5 31.6667H45.5V5.08333H7.5V31.6667Z" fill="#FF9900"/>
</svg>
