<svg width="57" height="51" viewBox="0 0 57 51" fill="none" xmlns="http://www.w3.org/2000/svg">
<path d="M28.1823 45.8334C28.3517 45.8334 28.5212 45.791 28.6906 45.7063C28.8601 45.6216 28.9871 45.5368 29.0719 45.4521L49.9135 24.6105C50.4219 24.1021 50.7925 23.5302 51.0255 22.8948C51.2585 22.2594 51.375 21.624 51.375 20.9886C51.375 20.3108 51.2585 19.6648 51.0255 19.0506C50.7925 18.4363 50.4219 17.8962 49.9135 17.4302L39.1114 6.62817C38.6455 6.11983 38.1054 5.74917 37.4911 5.51619C36.8769 5.2832 36.2309 5.16671 35.5531 5.16671C34.9177 5.16671 34.2823 5.2832 33.6469 5.51619C33.0114 5.74917 32.4396 6.11983 31.9312 6.62817L31.2323 7.32712L35.9344 12.0927C36.5698 12.6858 37.0358 13.3636 37.3323 14.1261C37.6288 14.8886 37.7771 15.6934 37.7771 16.5407C37.7771 18.3198 37.1734 19.8131 35.9661 21.0204C34.7588 22.2276 33.2656 22.8313 31.4864 22.8313C30.6392 22.8313 29.8238 22.683 29.0401 22.3865C28.2564 22.09 27.568 21.6452 26.975 21.0521L22.2094 16.35L11.0896 27.4698C10.9625 27.5969 10.8672 27.7346 10.8036 27.8829C10.7401 28.0311 10.7083 28.19 10.7083 28.3594C10.7083 28.6983 10.8354 29.0054 11.0896 29.2808C11.3437 29.5561 11.6403 29.6938 11.9792 29.6938C12.1486 29.6938 12.318 29.6514 12.4875 29.5667C12.6569 29.482 12.784 29.3973 12.8687 29.3125L21.5104 20.6709L25.0687 24.2292L16.4906 32.8709C16.3635 32.998 16.2682 33.1356 16.2047 33.2839C16.1411 33.4322 16.1094 33.591 16.1094 33.7605C16.1094 34.0993 16.2364 34.3959 16.4906 34.65C16.7448 34.9042 17.0413 35.0313 17.3802 35.0313C17.5496 35.0313 17.7191 34.9889 17.8885 34.9042C18.058 34.8195 18.1851 34.7348 18.2698 34.65L26.9114 26.0719L30.4698 29.6302L21.8917 38.2719C21.7646 38.3566 21.6693 38.4837 21.6057 38.6532C21.5422 38.8226 21.5104 38.9921 21.5104 39.1615C21.5104 39.5004 21.6375 39.7969 21.8917 40.0511C22.1458 40.3052 22.4423 40.4323 22.7812 40.4323C22.9507 40.4323 23.1095 40.4006 23.2578 40.337C23.4061 40.2735 23.5437 40.1782 23.6708 40.0511L32.3125 31.473L35.8708 35.0313L27.2292 43.673C27.1021 43.8 27.0068 43.9377 26.9432 44.086C26.8797 44.2342 26.8479 44.3931 26.8479 44.5625C26.8479 44.9014 26.9856 45.198 27.2609 45.4521C27.5363 45.7063 27.8434 45.8334 28.1823 45.8334ZM28.1187 50.9167C26.5514 50.9167 25.164 50.3978 23.9568 49.3599C22.7495 48.3221 22.0399 47.0195 21.8281 45.4521C20.3878 45.2403 19.1805 44.6473 18.2062 43.673C17.2319 42.6987 16.6389 41.4914 16.4271 40.0511C14.9868 39.8393 13.7901 39.2356 12.837 38.2401C11.8838 37.2447 11.3014 36.048 11.0896 34.65C9.47985 34.4382 8.16665 33.7393 7.14999 32.5532C6.13332 31.3671 5.62499 29.9691 5.62499 28.3594C5.62499 27.5122 5.78384 26.6967 6.10155 25.9131C6.41926 25.1294 6.87464 24.441 7.46769 23.848L22.2094 9.16983L30.5333 17.4938C30.618 17.6209 30.7451 17.7162 30.9146 17.7797C31.084 17.8433 31.2535 17.875 31.4229 17.875C31.8042 17.875 32.1219 17.7585 32.376 17.5256C32.6302 17.2926 32.7573 16.9855 32.7573 16.6042C32.7573 16.4348 32.7255 16.2653 32.662 16.0959C32.5984 15.9264 32.5031 15.7993 32.376 15.7146L23.2896 6.62817C22.8236 6.11983 22.2835 5.74917 21.6693 5.51619C21.055 5.2832 20.409 5.16671 19.7312 5.16671C19.0958 5.16671 18.4604 5.2832 17.825 5.51619C17.1896 5.74917 16.6177 6.11983 16.1094 6.62817L7.14999 15.6511C6.76874 16.0323 6.45103 16.4771 6.19686 16.9855C5.94269 17.4938 5.77325 18.0021 5.68853 18.5105C5.6038 19.0188 5.6038 19.5377 5.68853 20.0672C5.77325 20.5967 5.94269 21.0945 6.19686 21.5605L2.51144 25.2459C1.7913 24.2716 1.26179 23.202 0.922902 22.037C0.584013 20.8721 0.45693 19.6966 0.541652 18.5105C0.626374 17.3243 0.922902 16.17 1.43124 15.0474C1.93957 13.9249 2.63853 12.9188 3.52811 12.0292L12.4875 3.06983C13.5042 2.09553 14.6373 1.35421 15.887 0.845874C17.1366 0.337541 18.418 0.083374 19.7312 0.083374C21.0444 0.083374 22.3259 0.337541 23.5755 0.845874C24.8252 1.35421 25.9371 2.09553 26.9114 3.06983L27.6104 3.76879L28.3094 3.06983C29.326 2.09553 30.4592 1.35421 31.7088 0.845874C32.9585 0.337541 34.2399 0.083374 35.5531 0.083374C36.8663 0.083374 38.1477 0.337541 39.3974 0.845874C40.647 1.35421 41.759 2.09553 42.7333 3.06983L53.4719 13.8084C54.4462 14.7827 55.1875 15.9052 55.6958 17.1761C56.2042 18.4469 56.4583 19.7389 56.4583 21.0521C56.4583 22.3653 56.2042 23.6467 55.6958 24.8964C55.1875 26.146 54.4462 27.258 53.4719 28.2323L32.6302 49.0105C32.0371 49.6035 31.3488 50.0695 30.5651 50.4084C29.7814 50.7473 28.966 50.9167 28.1187 50.9167Z" fill="#FF9900"/>
</svg>
