<svg width="67" height="67" viewBox="0 0 67 67" fill="none" xmlns="http://www.w3.org/2000/svg">
<path d="M33.5 51.6041C37.2306 51.6041 40.6182 50.548 43.663 48.4359C46.7078 46.3237 48.916 43.5395 50.2875 40.0833H16.7125C18.084 43.5395 20.2922 46.3237 23.337 48.4359C26.3818 50.548 29.7694 51.6041 33.5 51.6041ZM19.675 30.2083L23.2958 26.752L26.7521 30.2083L30.2083 26.752L23.2958 19.6749L16.2188 26.752L19.675 30.2083ZM40.2479 30.2083L43.7042 26.752L47.325 30.2083L50.7813 26.752L43.7042 19.6749L36.7917 26.752L40.2479 30.2083ZM33.5 66.4166C28.9465 66.4166 24.6674 65.5525 20.6625 63.8244C16.6576 62.0963 13.174 59.751 10.2115 56.7885C7.24896 53.826 4.90365 50.3423 3.17552 46.3374C1.4474 42.3326 0.583333 38.0534 0.583333 33.4999C0.583333 28.9464 1.4474 24.6673 3.17552 20.6624C4.90365 16.6576 7.24896 13.1739 10.2115 10.2114C13.174 7.24888 16.6576 4.90356 20.6625 3.17544C24.6674 1.44731 28.9465 0.583252 33.5 0.583252C38.0535 0.583252 42.3326 1.44731 46.3375 3.17544C50.3424 4.90356 53.826 7.24888 56.7885 10.2114C59.751 13.1739 62.0964 16.6576 63.8245 20.6624C65.5526 24.6673 66.4167 28.9464 66.4167 33.4999C66.4167 38.0534 65.5526 42.3326 63.8245 46.3374C62.0964 50.3423 59.751 53.826 56.7885 56.7885C53.826 59.751 50.3424 62.0963 46.3375 63.8244C42.3326 65.5525 38.0535 66.4166 33.5 66.4166ZM33.5 59.8333C40.8514 59.8333 47.0781 57.2822 52.1802 52.1801C57.2823 47.078 59.8333 40.8513 59.8333 33.4999C59.8333 26.1485 57.2823 19.9218 52.1802 14.8197C47.0781 9.71763 40.8514 7.16659 33.5 7.16659C26.1486 7.16659 19.9219 9.71763 14.8198 14.8197C9.71771 19.9218 7.16667 26.1485 7.16667 33.4999C7.16667 40.8513 9.71771 47.078 14.8198 52.1801C19.9219 57.2822 26.1486 59.8333 33.5 59.8333Z" fill="#FF9900"/>
</svg>
