<svg width="746" height="959" viewBox="0 0 746 959" fill="none" xmlns="http://www.w3.org/2000/svg">
<rect width="746" height="959" fill="#FF9900"/>
<rect x="735" y="9" width="5" height="28" rx="2" fill="black"/>
<rect x="735" y="69" width="5" height="28" rx="2" fill="black"/>
<rect x="735" y="129" width="5" height="28" rx="2" fill="black"/>
<rect x="735" y="189" width="5" height="28" rx="2" fill="black"/>
<rect x="735" y="249" width="5" height="28" rx="2" fill="black"/>
<rect x="735" y="309" width="5" height="28" rx="2" fill="black"/>
<rect x="735" y="369" width="5" height="28" rx="2" fill="black"/>
<rect x="735" y="429" width="5" height="28" rx="2" fill="black"/>
<rect x="735" y="489" width="5" height="28" rx="2" fill="black"/>
<rect x="735" y="549" width="5" height="28" rx="2" fill="black"/>
<rect x="735" y="609" width="5" height="28" rx="2" fill="black"/>
<rect x="735" y="669" width="5" height="28" rx="2" fill="black"/>
<rect x="735" y="729" width="5" height="28" rx="2" fill="black"/>
<rect x="735" y="789" width="5" height="28" rx="2" fill="black"/>
<rect x="735" y="849" width="5" height="28" rx="2" fill="black"/>
<rect x="735" y="909" width="5" height="28" rx="2" fill="black"/>
</svg>
