<svg width="122" height="45" viewBox="0 0 122 45" fill="none" xmlns="http://www.w3.org/2000/svg">
<path d="M38.98 28V17.92H45.14V19.824H40.884V22.008H44.3V23.912H40.884V28H38.98ZM48.2304 28.21C47.6891 28.21 47.2294 28.1073 46.8514 27.902C46.4781 27.692 46.1934 27.4143 45.9974 27.069C45.8061 26.719 45.7104 26.334 45.7104 25.914C45.7104 25.564 45.7641 25.2443 45.8714 24.955C45.9787 24.6657 46.1514 24.4113 46.3894 24.192C46.6321 23.968 46.9564 23.7813 47.3624 23.632C47.6424 23.5293 47.9761 23.4383 48.3634 23.359C48.7507 23.2797 49.1894 23.205 49.6794 23.135C50.1694 23.0603 50.7084 22.9787 51.2964 22.89L50.6104 23.268C50.6104 22.82 50.5031 22.491 50.2884 22.281C50.0737 22.071 49.7144 21.966 49.2104 21.966C48.9304 21.966 48.6387 22.0337 48.3354 22.169C48.0321 22.3043 47.8197 22.5447 47.6984 22.89L45.9764 22.344C46.1677 21.7187 46.5271 21.21 47.0544 20.818C47.5817 20.426 48.3004 20.23 49.2104 20.23C49.8777 20.23 50.4704 20.3327 50.9884 20.538C51.5064 20.7433 51.8984 21.098 52.1644 21.602C52.3137 21.882 52.4024 22.162 52.4304 22.442C52.4584 22.722 52.4724 23.0347 52.4724 23.38V28H50.8064V26.446L51.0444 26.768C50.6757 27.2767 50.2767 27.6453 49.8474 27.874C49.4227 28.098 48.8837 28.21 48.2304 28.21ZM48.6364 26.712C48.9864 26.712 49.2804 26.6513 49.5184 26.53C49.7611 26.404 49.9524 26.2617 50.0924 26.103C50.2371 25.9443 50.3351 25.8113 50.3864 25.704C50.4844 25.4987 50.5404 25.2607 50.5544 24.99C50.5731 24.7147 50.5824 24.486 50.5824 24.304L51.1424 24.444C50.5777 24.5373 50.1204 24.6167 49.7704 24.682C49.4204 24.7427 49.1381 24.7987 48.9234 24.85C48.7087 24.9013 48.5197 24.9573 48.3564 25.018C48.1697 25.0927 48.0181 25.1743 47.9014 25.263C47.7894 25.347 47.7054 25.4403 47.6494 25.543C47.5981 25.6457 47.5724 25.76 47.5724 25.886C47.5724 26.0587 47.6144 26.208 47.6984 26.334C47.7871 26.4553 47.9107 26.5487 48.0694 26.614C48.2281 26.6793 48.4171 26.712 48.6364 26.712ZM54.4325 28V17.71H56.3365V28H54.4325ZM61.9491 28.21C61.1744 28.21 60.4907 28.0443 59.8981 27.713C59.3101 27.377 58.8481 26.9173 58.5121 26.334C58.1807 25.746 58.0151 25.074 58.0151 24.318C58.0151 23.492 58.1784 22.7733 58.5051 22.162C58.8317 21.5507 59.2821 21.077 59.8561 20.741C60.4301 20.4003 61.0904 20.23 61.8371 20.23C62.6304 20.23 63.3047 20.4167 63.8601 20.79C64.4154 21.1633 64.8261 21.6883 65.0921 22.365C65.3581 23.0417 65.4514 23.8373 65.3721 24.752H63.4891V24.052C63.4891 23.282 63.3654 22.729 63.1181 22.393C62.8754 22.0523 62.4764 21.882 61.9211 21.882C61.2724 21.882 60.7941 22.0803 60.4861 22.477C60.1827 22.869 60.0311 23.45 60.0311 24.22C60.0311 24.9247 60.1827 25.4707 60.4861 25.858C60.7941 26.2407 61.2444 26.432 61.8371 26.432C62.2104 26.432 62.5301 26.3503 62.7961 26.187C63.0621 26.0237 63.2651 25.788 63.4051 25.48L65.3091 26.026C65.0244 26.7167 64.5741 27.2533 63.9581 27.636C63.3467 28.0187 62.6771 28.21 61.9491 28.21ZM59.4431 24.752V23.338H64.4551V24.752H59.4431ZM74.0814 28.21C73.0734 28.21 72.2031 27.9907 71.4704 27.552C70.7424 27.1133 70.1801 26.4997 69.7834 25.711C69.3914 24.9223 69.1954 24.0053 69.1954 22.96C69.1954 21.9147 69.3914 20.9977 69.7834 20.209C70.1801 19.4203 70.7424 18.8067 71.4704 18.368C72.2031 17.9293 73.0734 17.71 74.0814 17.71C75.2387 17.71 76.2094 17.997 76.9934 18.571C77.7821 19.145 78.3374 19.922 78.6594 20.902L76.7414 21.434C76.5547 20.8227 76.2397 20.349 75.7964 20.013C75.3531 19.6723 74.7814 19.502 74.0814 19.502C73.4421 19.502 72.9077 19.6443 72.4784 19.929C72.0537 20.2137 71.7341 20.615 71.5194 21.133C71.3047 21.651 71.1974 22.26 71.1974 22.96C71.1974 23.66 71.3047 24.269 71.5194 24.787C71.7341 25.305 72.0537 25.7063 72.4784 25.991C72.9077 26.2757 73.4421 26.418 74.0814 26.418C74.7814 26.418 75.3531 26.2477 75.7964 25.907C76.2397 25.5663 76.5547 25.0927 76.7414 24.486L78.6594 25.018C78.3374 25.998 77.7821 26.775 76.9934 27.349C76.2094 27.923 75.2387 28.21 74.0814 28.21ZM83.6027 28.21C82.842 28.21 82.1747 28.0397 81.6007 27.699C81.0267 27.3583 80.5787 26.8893 80.2567 26.292C79.9394 25.69 79.7807 24.9993 79.7807 24.22C79.7807 23.4313 79.944 22.7383 80.2707 22.141C80.5974 21.539 81.0477 21.07 81.6217 20.734C82.1957 20.398 82.856 20.23 83.6027 20.23C84.3634 20.23 85.0307 20.4003 85.6047 20.741C86.1834 21.0817 86.6337 21.553 86.9557 22.155C87.2777 22.7523 87.4387 23.4407 87.4387 24.22C87.4387 25.004 87.2754 25.697 86.9487 26.299C86.6267 26.8963 86.1764 27.3653 85.5977 27.706C85.0237 28.042 84.3587 28.21 83.6027 28.21ZM83.6027 26.432C84.214 26.432 84.669 26.2267 84.9677 25.816C85.271 25.4007 85.4227 24.8687 85.4227 24.22C85.4227 23.548 85.2687 23.0113 84.9607 22.61C84.6574 22.2087 84.2047 22.008 83.6027 22.008C83.1874 22.008 82.8467 22.1013 82.5807 22.288C82.3147 22.4747 82.1164 22.7337 81.9857 23.065C81.8597 23.3963 81.7967 23.7813 81.7967 24.22C81.7967 24.8967 81.9484 25.4357 82.2517 25.837C82.5597 26.2337 83.01 26.432 83.6027 26.432ZM98.078 28V23.534C98.078 23.0347 97.959 22.6473 97.721 22.372C97.4877 22.092 97.1634 21.952 96.748 21.952C96.482 21.952 96.251 22.015 96.055 22.141C95.859 22.2623 95.705 22.435 95.593 22.659C95.4857 22.8783 95.432 23.1327 95.432 23.422L94.634 22.89C94.634 22.372 94.7554 21.9147 94.998 21.518C95.2454 21.1213 95.5744 20.8133 95.985 20.594C96.4004 20.37 96.86 20.258 97.364 20.258C98.2274 20.258 98.8784 20.5147 99.317 21.028C99.7604 21.5367 99.982 22.204 99.982 23.03V28H98.078ZM88.964 28V20.44H90.644V22.946H90.882V28H88.964ZM93.528 28V23.534C93.528 23.0347 93.409 22.6473 93.171 22.372C92.9377 22.092 92.6134 21.952 92.198 21.952C91.8014 21.952 91.4817 22.0897 91.239 22.365C91.001 22.6357 90.882 22.988 90.882 23.422L90.084 22.862C90.084 22.3673 90.2077 21.924 90.455 21.532C90.7024 21.14 91.0337 20.8297 91.449 20.601C91.869 20.3723 92.338 20.258 92.856 20.258C93.4487 20.258 93.934 20.384 94.312 20.636C94.6947 20.888 94.977 21.224 95.159 21.644C95.341 22.064 95.432 22.526 95.432 23.03V28H93.528ZM101.942 19.39V17.71H103.846V19.39H101.942ZM101.942 28V20.44H103.846V28H101.942ZM109.179 31.57C108.75 31.57 108.341 31.5 107.954 31.36C107.567 31.2247 107.219 31.0333 106.911 30.786C106.608 30.5433 106.36 30.2587 106.169 29.932L107.933 29.078C108.054 29.302 108.227 29.4723 108.451 29.589C108.68 29.7057 108.927 29.764 109.193 29.764C109.478 29.764 109.746 29.715 109.998 29.617C110.25 29.5237 110.451 29.3813 110.6 29.19C110.754 29.0033 110.826 28.77 110.817 28.49V26.292H111.055V20.44H112.721V28.518C112.721 28.7047 112.712 28.8797 112.693 29.043C112.679 29.211 112.651 29.3767 112.609 29.54C112.488 30.002 112.261 30.3823 111.93 30.681C111.603 30.9797 111.202 31.2013 110.726 31.346C110.25 31.4953 109.734 31.57 109.179 31.57ZM109.011 28.21C108.316 28.21 107.707 28.035 107.184 27.685C106.661 27.335 106.253 26.859 105.959 26.257C105.67 25.655 105.525 24.976 105.525 24.22C105.525 23.45 105.672 22.7663 105.966 22.169C106.265 21.567 106.682 21.0933 107.219 20.748C107.756 20.4027 108.386 20.23 109.109 20.23C109.828 20.23 110.432 20.405 110.922 20.755C111.412 21.105 111.783 21.581 112.035 22.183C112.287 22.785 112.413 23.464 112.413 24.22C112.413 24.976 112.285 25.655 112.028 26.257C111.776 26.859 111.398 27.335 110.894 27.685C110.39 28.035 109.762 28.21 109.011 28.21ZM109.319 26.516C109.744 26.516 110.082 26.4203 110.334 26.229C110.591 26.0377 110.775 25.7693 110.887 25.424C110.999 25.0787 111.055 24.6773 111.055 24.22C111.055 23.7627 110.999 23.3613 110.887 23.016C110.775 22.6707 110.595 22.4023 110.348 22.211C110.105 22.0197 109.786 21.924 109.389 21.924C108.964 21.924 108.614 22.029 108.339 22.239C108.068 22.4443 107.868 22.722 107.737 23.072C107.606 23.4173 107.541 23.8 107.541 24.22C107.541 24.6447 107.604 25.032 107.73 25.382C107.856 25.7273 108.05 26.0027 108.311 26.208C108.572 26.4133 108.908 26.516 109.319 26.516ZM118.083 28.21C117.323 28.21 116.655 28.0397 116.081 27.699C115.507 27.3583 115.059 26.8893 114.737 26.292C114.42 25.69 114.261 24.9993 114.261 24.22C114.261 23.4313 114.425 22.7383 114.751 22.141C115.078 21.539 115.528 21.07 116.102 20.734C116.676 20.398 117.337 20.23 118.083 20.23C118.844 20.23 119.511 20.4003 120.085 20.741C120.664 21.0817 121.114 21.553 121.436 22.155C121.758 22.7523 121.919 23.4407 121.919 24.22C121.919 25.004 121.756 25.697 121.429 26.299C121.107 26.8963 120.657 27.3653 120.078 27.706C119.504 28.042 118.839 28.21 118.083 28.21ZM118.083 26.432C118.695 26.432 119.15 26.2267 119.448 25.816C119.752 25.4007 119.903 24.8687 119.903 24.22C119.903 23.548 119.749 23.0113 119.441 22.61C119.138 22.2087 118.685 22.008 118.083 22.008C117.668 22.008 117.327 22.1013 117.061 22.288C116.795 22.4747 116.597 22.7337 116.466 23.065C116.34 23.3963 116.277 23.7813 116.277 24.22C116.277 24.8967 116.429 25.4357 116.732 25.837C117.04 26.2337 117.491 26.432 118.083 26.432Z" fill="#FD6901"/>
<path d="M26.9966 21.3209C26.9978 21.7727 26.9989 22.2251 27 22.6769C26.9031 22.6973 26.8818 22.7714 26.8897 22.8511C26.9188 23.1652 26.776 23.4583 26.7833 23.7707C26.7855 23.8703 26.7301 23.9742 26.72 24.071C26.6898 24.3492 26.5929 24.614 26.5604 24.8883C26.5274 25.1698 26.4798 25.4491 26.3935 25.7145C26.2619 26.1193 26.1012 26.5153 25.9416 26.9118C25.6157 27.7208 25.1929 28.4784 24.6973 29.1907C24.0937 30.0584 23.3887 30.8481 22.5851 31.5437C21.8913 32.1437 21.1448 32.6707 20.3586 33.1519C19.8361 33.4715 19.2739 33.6921 18.7234 33.9443C18.0369 34.259 17.305 34.4343 16.5798 34.63C16.2024 34.7318 15.8154 34.7628 15.4285 34.7987C15.2062 34.8192 14.9995 34.9209 14.7828 34.9392C14.3449 34.9768 13.9037 34.9917 13.4635 34.9923C10.2162 34.9983 6.96825 34.9983 3.72091 35C3.50419 35 3.28692 34.9994 3.07021 34.9956C3.01757 34.9945 2.94645 35.0188 2.91957 34.9552C2.88765 34.88 2.96773 34.8507 3.00581 34.8064C3.02373 34.786 3.04949 34.7722 3.07077 34.7545C3.67051 34.2662 4.23385 33.7397 4.72216 33.143C5.11863 32.6591 5.15391 32.2012 4.65608 31.8164C3.97178 31.2866 3.37708 30.6617 2.83613 29.9909C1.89704 28.8268 1.17578 27.5416 0.686355 26.132C0.262447 24.9099 0.0233337 23.654 0.00373424 22.3611C-0.00410554 21.8579 -0.00410513 21.3546 0.0496533 20.8509C0.142611 19.9849 0.306126 19.1365 0.550279 18.2987C0.649396 17.9587 0.85771 17.6711 0.943948 17.3282C0.993226 17.133 1.06938 16.9361 1.17578 16.7653C1.40761 16.3925 1.55433 15.9783 1.80296 15.61C1.96144 15.3761 2.08183 15.1079 2.24703 14.8718C2.6463 14.3016 3.07525 13.7531 3.56075 13.2515C3.88386 12.9175 4.20697 12.5785 4.5648 12.2837C5.02119 11.9077 5.50222 11.5587 6.01236 11.2535C6.56227 10.9239 7.07745 10.5484 7.69287 10.3178C8.25454 10.1077 8.80164 9.8555 9.37787 9.68185C9.68866 9.5884 10.0022 9.48443 10.322 9.44793C10.6389 9.41199 10.9413 9.31632 11.2611 9.28812C11.6923 9.24996 12.1139 9.11558 12.553 9.11226C12.6443 9.11171 12.7411 9.11945 12.7697 9C13.2686 9.00332 13.767 9.00719 14.266 9.01051C14.2895 9.10396 14.369 9.08793 14.4351 9.09014C14.6496 9.09843 14.8607 9.12111 15.0723 9.1648C15.2247 9.19632 15.3831 9.24498 15.5438 9.19632C15.5696 9.20074 15.5954 9.20516 15.6211 9.20959C15.6514 9.22397 15.6799 9.24609 15.7118 9.25162C16.1783 9.33014 16.6476 9.39097 17.1028 9.5248C17.1689 9.54416 17.2395 9.55577 17.3084 9.52757C17.3336 9.53254 17.3588 9.53697 17.384 9.54194C17.4069 9.59227 17.4562 9.60499 17.5027 9.61826C18.2301 9.82121 18.9267 10.1049 19.6009 10.4389C21.2176 11.2386 22.6276 12.3014 23.8087 13.6607C24.8284 14.8347 25.6224 16.1348 26.1662 17.587C26.2547 17.8226 26.2916 18.0814 26.4501 18.2899C26.4551 18.3142 26.4607 18.3391 26.4658 18.3635C26.4378 18.4962 26.4792 18.6228 26.5134 18.7467C26.7194 19.4894 26.7844 20.2542 26.8841 21.014C26.8998 21.1218 26.8639 21.2523 26.9966 21.3209ZM10.8193 26.8045C11.4694 26.8017 11.9908 26.7851 12.5132 26.716C13.2199 26.6226 13.9216 26.5059 14.6137 26.3438C15.3613 26.1685 16.0943 25.9429 16.8122 25.6703C17.5324 25.3965 18.2357 25.0841 18.9004 24.7009C19.3501 24.4421 19.7885 24.16 20.2393 23.9001C20.7607 23.5993 21.2501 23.2465 21.7899 22.9738C22.1007 22.8168 22.3426 22.5596 22.6265 22.3628C22.8186 22.2295 22.948 22.0426 23.0958 21.87C23.3685 21.5526 23.3601 21.1561 23.4167 20.7779C23.4889 20.294 23.0605 19.7023 22.6159 19.5104C22.4434 19.4363 22.2351 19.3699 22.0503 19.4601C21.8358 19.5646 21.6376 19.7034 21.4382 19.835C21.1381 20.0335 20.8536 20.2575 20.5428 20.4378C19.8372 20.847 19.1473 21.2833 18.4065 21.6323C17.9019 21.87 17.4047 22.1233 16.8822 22.323C16.3054 22.5436 15.7186 22.7206 15.1183 22.8704C14.5913 23.0015 14.0605 23.1143 13.5223 23.127C12.5838 23.1491 11.6542 23.0269 10.7453 22.7963C10.1557 22.6465 9.58338 22.4269 9.18075 21.943C8.90356 21.6096 8.78708 21.3618 8.99484 21.009C9.13371 20.7729 9.36555 20.6103 9.60522 20.487C10.3074 20.1248 11.0713 19.9213 11.8211 19.6807C12.1111 19.5878 12.4001 19.4744 12.6437 19.2864C13.0066 19.006 13.1046 18.6184 13.067 18.1832C13.0362 17.8221 12.8509 17.5489 12.5283 17.4007C12.1111 17.2093 11.6497 17.1701 11.1984 17.1839C10.7627 17.1972 10.3276 17.2619 9.89753 17.3553C9.42042 17.4587 8.95844 17.6108 8.49701 17.7612C7.62232 18.046 6.75098 18.3435 5.91268 18.7224C5.03743 19.1177 4.35481 19.7194 3.98242 20.6147C3.75227 21.1666 3.65315 21.7495 3.59491 22.3445C3.53499 22.9572 3.67555 23.5064 4.01322 24.0124C4.30161 24.4437 4.68968 24.7799 5.09119 25.1046C6.01124 25.8478 7.04441 26.3621 8.21478 26.5744C9.11467 26.7387 10.0263 26.8255 10.8193 26.8045ZM17.9535 19.809C17.9725 19.7238 18.0487 19.705 18.0979 19.6597C18.2962 19.4766 18.2984 19.3058 18.1052 19.1144C17.9551 18.9657 17.445 18.9153 17.2255 19.0376C16.5457 19.4164 15.8692 19.8018 15.1888 20.1806C14.2598 20.6982 13.2938 21.1451 12.3295 21.5935C11.6609 21.9043 10.9514 22.0791 10.2296 22.2162C10.1708 22.2273 10.0902 22.2201 10.0868 22.3047C10.084 22.3733 10.1434 22.412 10.2016 22.4396C10.2391 22.4573 10.28 22.4684 10.3198 22.4811C10.798 22.6371 11.2902 22.7206 11.7869 22.7991C12.6314 22.9335 13.4742 23.0369 14.322 22.8638C15.1698 22.6907 15.9935 22.443 16.7982 22.1178C17.4573 21.8518 18.1019 21.5581 18.7447 21.2601C19.4402 20.9371 20.0696 20.5003 20.7215 20.1026C21.0401 19.9085 21.189 19.6359 21.0547 19.4142C20.7035 18.8335 20.3502 18.5177 19.6732 18.9043C19.1697 19.1918 18.6445 19.4418 18.1601 19.7625C18.1075 19.7979 18.0481 19.8505 17.9535 19.809Z" fill="#FD6901"/>
</svg>
