<svg width="222" height="79" viewBox="0 0 222 79" fill="none" xmlns="http://www.w3.org/2000/svg">
<path d="M95.31 22.94H104.55V28.28H95.31V22.94ZM95.79 35H88.71V14H105.78V19.34H95.79V35ZM117.414 35V32.09L116.934 31.31V25.79C116.934 24.99 116.684 24.38 116.184 23.96C115.704 23.54 114.914 23.33 113.814 23.33C113.074 23.33 112.324 23.45 111.564 23.69C110.804 23.91 110.154 24.22 109.614 24.62L107.454 20.15C108.414 19.55 109.564 19.09 110.904 18.77C112.244 18.45 113.554 18.29 114.834 18.29C117.654 18.29 119.834 18.92 121.374 20.18C122.934 21.44 123.714 23.44 123.714 26.18V35H117.414ZM112.764 35.3C111.424 35.3 110.304 35.07 109.404 34.61C108.504 34.15 107.824 33.54 107.364 32.78C106.904 32 106.674 31.14 106.674 30.2C106.674 29.14 106.944 28.24 107.484 27.5C108.024 26.76 108.844 26.2 109.944 25.82C111.064 25.44 112.474 25.25 114.174 25.25H117.594V28.52H115.254C114.534 28.52 114.004 28.64 113.664 28.88C113.344 29.1 113.184 29.44 113.184 29.9C113.184 30.28 113.324 30.6 113.604 30.86C113.904 31.1 114.304 31.22 114.804 31.22C115.264 31.22 115.684 31.1 116.064 30.86C116.464 30.6 116.754 30.2 116.934 29.66L117.804 31.67C117.544 32.89 116.994 33.8 116.154 34.4C115.314 35 114.184 35.3 112.764 35.3ZM126.645 35V12.74H133.425V35H126.645ZM145.49 35.3C143.49 35.3 141.74 34.93 140.24 34.19C138.76 33.45 137.61 32.44 136.79 31.16C135.97 29.86 135.56 28.4 135.56 26.78C135.56 25.12 135.96 23.65 136.76 22.37C137.58 21.09 138.69 20.09 140.09 19.37C141.51 18.65 143.1 18.29 144.86 18.29C146.48 18.29 147.97 18.61 149.33 19.25C150.71 19.89 151.81 20.84 152.63 22.1C153.47 23.36 153.89 24.92 153.89 26.78C153.89 27.02 153.88 27.29 153.86 27.59C153.84 27.87 153.82 28.13 153.8 28.37H141.17V25.1H150.2L147.65 25.97C147.65 25.33 147.53 24.79 147.29 24.35C147.07 23.89 146.76 23.54 146.36 23.3C145.96 23.04 145.48 22.91 144.92 22.91C144.36 22.91 143.87 23.04 143.45 23.3C143.05 23.54 142.74 23.89 142.52 24.35C142.3 24.79 142.19 25.33 142.19 25.97V26.99C142.19 27.69 142.33 28.29 142.61 28.79C142.89 29.29 143.29 29.67 143.81 29.93C144.33 30.17 144.96 30.29 145.7 30.29C146.46 30.29 147.08 30.19 147.56 29.99C148.06 29.79 148.58 29.49 149.12 29.09L152.66 32.66C151.86 33.52 150.87 34.18 149.69 34.64C148.53 35.08 147.13 35.3 145.49 35.3ZM99.57 72.48C97.89 72.48 96.33 72.22 94.89 71.7C93.47 71.16 92.23 70.4 91.17 69.42C90.13 68.44 89.32 67.28 88.74 65.94C88.16 64.6 87.87 63.12 87.87 61.5C87.87 59.88 88.16 58.4 88.74 57.06C89.32 55.72 90.13 54.56 91.17 53.58C92.23 52.6 93.47 51.85 94.89 51.33C96.33 50.79 97.89 50.52 99.57 50.52C101.63 50.52 103.45 50.88 105.03 51.6C106.63 52.32 107.95 53.36 108.99 54.72L104.52 58.71C103.9 57.93 103.21 57.33 102.45 56.91C101.71 56.47 100.87 56.25 99.93 56.25C99.19 56.25 98.52 56.37 97.92 56.61C97.32 56.85 96.8 57.2 96.36 57.66C95.94 58.12 95.61 58.68 95.37 59.34C95.13 59.98 95.01 60.7 95.01 61.5C95.01 62.3 95.13 63.03 95.37 63.69C95.61 64.33 95.94 64.88 96.36 65.34C96.8 65.8 97.32 66.15 97.92 66.39C98.52 66.63 99.19 66.75 99.93 66.75C100.87 66.75 101.71 66.54 102.45 66.12C103.21 65.68 103.9 65.07 104.52 64.29L108.99 68.28C107.95 69.62 106.63 70.66 105.03 71.4C103.45 72.12 101.63 72.48 99.57 72.48ZM119.025 72.3C117.165 72.3 115.515 71.94 114.075 71.22C112.655 70.48 111.535 69.47 110.715 68.19C109.895 66.91 109.485 65.44 109.485 63.78C109.485 62.12 109.895 60.65 110.715 59.37C111.535 58.09 112.655 57.09 114.075 56.37C115.515 55.65 117.165 55.29 119.025 55.29C120.885 55.29 122.535 55.65 123.975 56.37C125.415 57.09 126.535 58.09 127.335 59.37C128.155 60.65 128.565 62.12 128.565 63.78C128.565 65.44 128.155 66.91 127.335 68.19C126.535 69.47 125.415 70.48 123.975 71.22C122.535 71.94 120.885 72.3 119.025 72.3ZM119.025 67.02C119.525 67.02 119.975 66.9 120.375 66.66C120.775 66.42 121.095 66.06 121.335 65.58C121.575 65.08 121.695 64.48 121.695 63.78C121.695 63.06 121.575 62.47 121.335 62.01C121.095 61.53 120.775 61.17 120.375 60.93C119.975 60.69 119.525 60.57 119.025 60.57C118.525 60.57 118.075 60.69 117.675 60.93C117.275 61.17 116.955 61.53 116.715 62.01C116.475 62.47 116.355 63.06 116.355 63.78C116.355 64.48 116.475 65.08 116.715 65.58C116.955 66.06 117.275 66.42 117.675 66.66C118.075 66.9 118.525 67.02 119.025 67.02ZM152.408 55.29C153.648 55.29 154.758 55.55 155.738 56.07C156.738 56.57 157.518 57.36 158.078 58.44C158.658 59.52 158.948 60.92 158.948 62.64V72H152.168V63.81C152.168 62.79 151.998 62.07 151.658 61.65C151.318 61.21 150.878 60.99 150.338 60.99C149.938 60.99 149.578 61.09 149.258 61.29C148.938 61.49 148.678 61.81 148.478 62.25C148.298 62.67 148.208 63.25 148.208 63.99V72H141.428V63.81C141.428 62.79 141.268 62.07 140.948 61.65C140.628 61.21 140.178 60.99 139.598 60.99C139.198 60.99 138.838 61.09 138.518 61.29C138.198 61.49 137.938 61.81 137.738 62.25C137.558 62.67 137.468 63.25 137.468 63.99V72H130.688V55.59H137.138V60.3L135.818 58.98C136.438 57.74 137.268 56.82 138.308 56.22C139.348 55.6 140.508 55.29 141.788 55.29C143.228 55.29 144.498 55.67 145.598 56.43C146.718 57.17 147.468 58.35 147.848 59.97L145.778 59.64C146.378 58.28 147.248 57.22 148.388 56.46C149.548 55.68 150.888 55.29 152.408 55.29ZM161.889 72V55.59H168.669V72H161.889ZM165.279 54.27C164.039 54.27 163.049 53.94 162.309 53.28C161.569 52.62 161.199 51.8 161.199 50.82C161.199 49.84 161.569 49.02 162.309 48.36C163.049 47.7 164.039 47.37 165.279 47.37C166.519 47.37 167.509 47.68 168.249 48.3C168.989 48.92 169.359 49.72 169.359 50.7C169.359 51.74 168.989 52.6 168.249 53.28C167.509 53.94 166.519 54.27 165.279 54.27ZM180.014 78.12C178.394 78.12 176.874 77.95 175.454 77.61C174.034 77.27 172.814 76.76 171.794 76.08L174.074 71.46C174.714 71.96 175.524 72.35 176.504 72.63C177.504 72.93 178.444 73.08 179.324 73.08C180.724 73.08 181.724 72.78 182.324 72.18C182.924 71.6 183.224 70.76 183.224 69.66V68.28L183.524 63.18L183.554 58.08V55.59H190.004V68.73C190.004 71.91 189.124 74.27 187.364 75.81C185.604 77.35 183.154 78.12 180.014 78.12ZM178.694 71.1C177.314 71.1 176.024 70.78 174.824 70.14C173.624 69.48 172.654 68.56 171.914 67.38C171.174 66.2 170.804 64.8 170.804 63.18C170.804 61.56 171.174 60.16 171.914 58.98C172.654 57.8 173.624 56.89 174.824 56.25C176.024 55.61 177.314 55.29 178.694 55.29C180.114 55.29 181.274 55.57 182.174 56.13C183.094 56.69 183.774 57.56 184.214 58.74C184.654 59.9 184.874 61.38 184.874 63.18C184.874 64.98 184.654 66.47 184.214 67.65C183.774 68.81 183.094 69.68 182.174 70.26C181.274 70.82 180.114 71.1 178.694 71.1ZM180.494 65.82C181.034 65.82 181.514 65.71 181.934 65.49C182.354 65.27 182.684 64.96 182.924 64.56C183.164 64.16 183.284 63.7 183.284 63.18C183.284 62.64 183.164 62.18 182.924 61.8C182.684 61.4 182.354 61.1 181.934 60.9C181.514 60.68 181.034 60.57 180.494 60.57C179.974 60.57 179.494 60.68 179.054 60.9C178.634 61.1 178.294 61.4 178.034 61.8C177.794 62.18 177.674 62.64 177.674 63.18C177.674 63.7 177.794 64.16 178.034 64.56C178.294 64.96 178.634 65.27 179.054 65.49C179.494 65.71 179.974 65.82 180.494 65.82ZM201.672 72.3C199.812 72.3 198.162 71.94 196.722 71.22C195.302 70.48 194.182 69.47 193.362 68.19C192.542 66.91 192.132 65.44 192.132 63.78C192.132 62.12 192.542 60.65 193.362 59.37C194.182 58.09 195.302 57.09 196.722 56.37C198.162 55.65 199.812 55.29 201.672 55.29C203.532 55.29 205.182 55.65 206.622 56.37C208.062 57.09 209.182 58.09 209.982 59.37C210.802 60.65 211.212 62.12 211.212 63.78C211.212 65.44 210.802 66.91 209.982 68.19C209.182 69.47 208.062 70.48 206.622 71.22C205.182 71.94 203.532 72.3 201.672 72.3ZM201.672 67.02C202.172 67.02 202.622 66.9 203.022 66.66C203.422 66.42 203.742 66.06 203.982 65.58C204.222 65.08 204.342 64.48 204.342 63.78C204.342 63.06 204.222 62.47 203.982 62.01C203.742 61.53 203.422 61.17 203.022 60.93C202.622 60.69 202.172 60.57 201.672 60.57C201.172 60.57 200.722 60.69 200.322 60.93C199.922 61.17 199.602 61.53 199.362 62.01C199.122 62.47 199.002 63.06 199.002 63.78C199.002 64.48 199.122 65.08 199.362 65.58C199.602 66.06 199.922 66.42 200.322 66.66C200.722 66.9 201.172 67.02 201.672 67.02Z" fill="#FD6901"/>
<path d="M39.3428 76.0033C60.6926 76.0033 78 58.9893 78 38.0016C78 17.0139 60.6926 0 39.3428 0C17.993 0 0.685608 17.0139 0.685608 38.0016C0.685608 58.9893 17.993 76.0033 39.3428 76.0033Z" fill="#FD6901"/>
<path d="M77.6521 36.9864C77.6553 38.3023 77.6585 39.6199 77.6618 40.9358C77.3831 40.9954 77.3219 41.2113 77.3445 41.4432C77.4282 42.3581 77.0175 43.2118 77.0384 44.1218C77.0449 44.4118 76.8854 44.7146 76.8564 44.9965C76.7694 45.8067 76.4908 46.5782 76.3974 47.3771C76.3023 48.197 76.1654 49.0104 75.9174 49.7835C75.5388 50.9626 75.0766 52.1158 74.6175 53.2707C73.6801 55.6272 72.464 57.8339 71.0385 59.9085C69.3022 62.4357 67.2743 64.7358 64.9629 66.7621C62.9672 68.5097 60.8201 70.0447 58.5587 71.446C57.0559 72.377 55.4387 73.0197 53.8554 73.7542C51.8806 74.6707 49.7754 75.1813 47.6896 75.7515C46.6039 76.0479 45.4909 76.1381 44.3779 76.2428C43.7385 76.3023 43.1441 76.5987 42.5208 76.6519C41.2612 76.7614 39.9919 76.8049 38.7259 76.8065C29.3854 76.8242 20.0432 76.8242 10.7027 76.829C10.0793 76.829 9.45437 76.8274 8.83103 76.8162C8.67962 76.8129 8.47506 76.8838 8.39774 76.6986C8.30593 76.4795 8.53627 76.3942 8.64579 76.2653C8.69734 76.2057 8.77143 76.1654 8.83263 76.1139C10.5577 74.6916 12.1781 73.1582 13.5826 71.4203C14.723 70.0109 14.8245 68.6772 13.3926 67.5562C11.4243 66.0131 9.7137 64.193 8.15775 62.2392C5.45658 58.8486 3.38197 55.1053 1.9742 50.9996C0.754892 47.4399 0.0671161 43.782 0.010741 40.0161C-0.011809 38.5504 -0.0118078 37.0846 0.142821 35.6173C0.4102 33.0949 0.880529 30.624 1.5828 28.1838C1.8679 27.1932 2.46708 26.3556 2.71514 25.357C2.85688 24.7884 3.07593 24.215 3.38197 23.7173C4.04881 22.6317 4.47082 21.4252 5.18597 20.3525C5.64181 19.6712 5.98811 18.89 6.46327 18.2022C7.61171 16.5415 8.84552 14.9437 10.242 13.4828C11.1714 12.5099 12.1008 11.5226 13.13 10.664C14.4428 9.56876 15.8264 8.55239 17.2937 7.66328C18.8755 6.70329 20.3573 5.60962 22.1275 4.93795C23.743 4.32588 25.3167 3.59139 26.9741 3.08563C27.8681 2.81341 28.7701 2.5106 29.6898 2.40429C30.6015 2.29959 31.4713 2.02094 32.391 1.9388C33.6312 1.82766 34.8441 1.43625 36.1069 1.42659C36.3694 1.42498 36.6481 1.44752 36.7302 1.09961C38.1654 1.10927 39.5989 1.12055 41.0341 1.13021C41.1017 1.40242 41.3304 1.35571 41.5205 1.36216C42.1374 1.38632 42.7447 1.45236 43.3535 1.5796C43.7916 1.67142 44.2475 1.81316 44.7097 1.67142C44.7838 1.6843 44.8579 1.69719 44.932 1.71007C45.019 1.75195 45.1011 1.81638 45.1929 1.83249C46.5347 2.06121 47.8845 2.23839 49.194 2.62818C49.384 2.68456 49.587 2.71838 49.7851 2.63623C49.8576 2.65073 49.9301 2.66362 50.0026 2.67811C50.0686 2.82469 50.2103 2.86174 50.344 2.90039C52.4363 3.49153 54.4401 4.31782 56.3794 5.2907C61.0295 7.61979 65.0853 10.7156 68.4823 14.6747C71.4154 18.0943 73.6994 21.8811 75.2634 26.1108C75.5179 26.797 75.6242 27.5508 76.08 28.158C76.0945 28.2289 76.1106 28.3014 76.1251 28.3723C76.0446 28.7588 76.1638 29.1277 76.2621 29.4885C76.8548 31.6517 77.0416 33.8793 77.3283 36.0924C77.3735 36.4065 77.2704 36.7866 77.6521 36.9864ZM31.1201 52.9582C32.9902 52.9502 34.4897 52.9019 35.9925 52.7005C38.0253 52.4283 40.0435 52.0884 42.0343 51.6165C44.1846 51.1059 46.2931 50.4487 48.358 49.6547C50.4294 48.8573 52.4524 47.9473 54.3644 46.8311C55.6578 46.0773 56.919 45.2558 58.2156 44.4987C59.7152 43.6225 61.1229 42.5949 62.6757 41.8008C63.5696 41.3434 64.2654 40.5944 65.0821 40.021C65.6346 39.6328 66.0066 39.0884 66.4319 38.5858C67.2163 37.6613 67.1921 36.5064 67.3548 35.4046C67.5626 33.9953 66.3304 32.2718 65.0515 31.7129C64.5554 31.4971 63.9562 31.3038 63.4246 31.5663C62.8077 31.8707 62.2375 32.275 61.6641 32.6584C60.8008 33.2366 59.9825 33.889 59.0886 34.4141C57.0591 35.606 55.0747 36.8768 52.9437 37.8932C51.4925 38.5858 50.0621 39.3235 48.5593 39.905C46.9003 40.5477 45.2123 41.0631 43.4856 41.4996C41.9699 41.8813 40.4429 42.2099 38.895 42.247C36.1955 42.3114 33.5217 41.9554 30.9075 41.2838C29.2114 40.8473 27.5653 40.2078 26.4072 38.7984C25.6099 37.8272 25.2748 37.1056 25.8724 36.0779C26.2719 35.3901 26.9387 34.9166 27.6281 34.5574C29.6479 33.5024 31.8449 32.9096 34.0017 32.209C34.836 31.9384 35.6672 31.6082 36.3678 31.0605C37.4116 30.2439 37.6935 29.1148 37.5855 27.8472C37.4969 26.7954 36.9638 25.9997 36.036 25.568C34.836 25.0107 33.5088 24.8963 32.2106 24.9366C30.9574 24.9753 29.7059 25.1637 28.4689 25.4359C27.0965 25.7371 25.7677 26.1801 24.4405 26.6182C21.9245 27.4477 19.4183 28.3143 17.007 29.4176C14.4895 30.5693 12.526 32.3217 11.4549 34.9295C10.7929 36.537 10.5078 38.2347 10.3403 39.9678C10.1679 41.7525 10.5722 43.3519 11.5435 44.8257C12.373 46.0821 13.4892 47.0614 14.6441 48.0069C17.2905 50.1717 20.2623 51.6697 23.6287 52.2882C26.2171 52.7666 28.8393 53.0194 31.1201 52.9582ZM51.6406 32.5827C51.6954 32.3346 51.9145 32.2799 52.0562 32.1478C52.6264 31.6146 52.6329 31.1169 52.0772 30.5596C51.6455 30.1263 50.1781 29.9798 49.5467 30.3357C47.5913 31.4391 45.6456 32.5617 43.6885 33.6651C41.0164 35.1727 38.2379 36.4742 35.4642 37.7805C33.541 38.6857 31.5002 39.1947 29.424 39.5941C29.2549 39.6263 29.023 39.6054 29.0133 39.8518C29.0052 40.0516 29.176 40.1643 29.3435 40.2449C29.4514 40.2964 29.569 40.3286 29.6834 40.3657C31.0589 40.8199 32.4747 41.0631 33.9034 41.2918C36.3324 41.6832 38.7565 41.9844 41.1952 41.4803C43.6338 40.9761 46.0031 40.2545 48.3177 39.3074C50.2136 38.5327 52.0675 37.6774 53.9166 36.8092C55.9171 35.8685 57.7275 34.5961 59.6024 33.438C60.5189 32.8726 60.9474 32.0785 60.5608 31.4326C59.5509 29.7414 58.5345 28.8216 56.5872 29.9475C55.1391 30.7851 53.6283 31.5132 52.235 32.4474C52.0836 32.5505 51.9129 32.7035 51.6406 32.5827Z" fill="#FD6901"/>
<path d="M31.1201 52.9589C28.8393 53.0201 26.2171 52.7672 23.627 52.2921C20.2606 51.6735 17.2889 50.1756 14.6425 48.0108C13.4876 47.0653 12.3697 46.0876 11.5418 44.8296C10.569 43.3542 10.1663 41.7564 10.3386 39.9717C10.5061 38.2386 10.7912 36.5409 11.4532 34.9334C12.526 32.3272 14.4878 30.5732 17.0054 29.4215C19.4166 28.3182 21.9245 27.4532 24.4388 26.6221C25.7661 26.184 27.0949 25.741 28.4672 25.4398C29.7043 25.1676 30.9558 24.9791 32.2089 24.9405C33.5072 24.9002 34.8344 25.013 36.0344 25.5719C36.9622 26.0036 37.4953 26.8009 37.5839 27.8511C37.6918 29.1171 37.4083 30.2462 36.3662 31.0644C35.6655 31.6137 34.8328 31.9423 34 32.2129C31.8433 32.9135 29.6479 33.5063 27.6264 34.5613C26.9387 34.9205 26.2718 35.394 25.8708 36.0818C25.2732 37.1094 25.6082 37.831 26.4055 38.8023C27.562 40.2117 29.2098 40.8511 30.9059 41.2876C33.5201 41.9593 36.1955 42.3169 38.8934 42.2509C40.4413 42.2138 41.9667 41.8852 43.4839 41.5035C45.2106 41.0686 46.9003 40.5515 48.5577 39.9089C50.0621 39.3258 51.4908 38.5897 52.9421 37.8971C55.0731 36.8807 57.0574 35.6099 59.087 34.4179C59.9809 33.8928 60.7991 33.2405 61.6625 32.6623C62.2375 32.2773 62.8061 31.873 63.423 31.5702C63.9562 31.3076 64.5553 31.5009 65.0498 31.7168C66.3287 32.2757 67.5609 33.9975 67.3531 35.4085C67.1905 36.5119 67.2146 37.6668 66.4302 38.5897C66.005 39.0906 65.6329 39.6367 65.0804 40.0248C64.2638 40.5983 63.568 41.3472 62.674 41.8047C61.1213 42.5988 59.7151 43.6264 58.2139 44.5026C56.9189 45.2597 55.6577 46.0795 54.3627 46.8349C52.4508 47.9496 50.4277 48.8612 48.3564 49.6585C46.2914 50.4526 44.183 51.1098 42.0327 51.6204C40.0402 52.0923 38.0236 52.4322 35.9909 52.7044C34.4897 52.9025 32.9901 52.9508 31.1201 52.9589ZM31.6033 52.6947C32.1912 52.7382 32.7662 52.5788 33.3445 52.5788C35.076 52.5755 36.7656 52.2614 38.465 51.9876C40.3173 51.6913 42.1309 51.258 43.943 50.7796C45.122 50.4687 46.2898 50.1112 47.427 49.7004C49.4194 48.982 51.3555 48.1155 53.2014 47.054C57.0558 44.8393 60.9216 42.6519 64.4635 39.9346C65.7666 38.936 66.7346 37.8472 66.8876 36.1334C67.0374 34.455 66.6767 33.2325 65.2238 32.3063C64.5537 31.8795 63.8692 31.7297 63.1041 32.258C61.7865 33.168 60.4206 34.0072 59.0563 34.8448C57.0832 36.0576 55.1101 37.2689 53.0178 38.2804C51.995 38.7749 50.9786 39.2855 49.9349 39.7349C48.4707 40.3647 46.9824 40.9317 45.4555 41.3988C44.0767 41.8208 42.677 42.18 41.2547 42.3604C39.4894 42.5843 37.7289 42.6503 35.9232 42.4474C33.7423 42.2025 31.6017 41.8997 29.5287 41.183C28.1322 40.6997 26.8227 40.0554 25.9497 38.791C25.0493 37.488 24.8367 36.0013 26.5038 34.8255C28.5236 33.4016 30.8865 32.833 33.1609 32.0389C34.1192 31.7039 35.1002 31.4413 35.9297 30.8051C37.2762 29.7726 37.6209 28.5453 36.9461 26.9958C36.5047 25.9826 35.4706 25.6701 34.4349 25.4769C33.1802 25.2433 31.9432 25.3077 30.6723 25.4382C28.9811 25.6105 27.3768 26.0921 25.7612 26.5254C24.4421 26.8798 23.1744 27.4274 21.8842 27.8881C20.011 28.5582 18.0942 29.13 16.3353 30.0803C14.607 31.0145 13.2057 32.3063 12.2409 34.0426C11.3727 35.6067 10.9298 37.2979 10.7558 39.0616C10.6704 39.925 10.4949 40.7529 10.664 41.6758C10.9588 43.2817 11.6143 44.6299 12.6935 45.8121C13.755 46.9751 15.0113 47.9077 16.2725 48.8355C17.9815 50.095 19.8805 50.9922 21.9116 51.5495C23.1325 51.8845 24.4082 52.0504 25.6646 52.2615C27.6442 52.5933 29.6334 52.4612 31.6033 52.6947Z" fill="white"/>
<path d="M51.6406 32.5829C51.9128 32.7037 52.0836 32.5491 52.2382 32.446C53.6315 31.5118 55.1423 30.7837 56.5904 29.9461C58.5377 28.8203 59.5541 29.74 60.564 31.4312C60.9506 32.0771 60.5221 32.8712 59.6056 33.4366C57.7307 34.5931 55.9203 35.8671 53.9198 36.8078C52.0707 37.676 50.2168 38.5313 48.3209 39.306C46.0047 40.2531 43.637 40.9747 41.1983 41.4789C38.7581 41.983 36.3356 41.6818 33.9066 41.2904C32.4779 41.0601 31.0621 40.8169 29.6866 40.3643C29.5722 40.3272 29.4546 40.295 29.3467 40.2435C29.1808 40.1629 29.0085 40.0502 29.0165 39.8504C29.0262 39.604 29.2581 39.6266 29.4272 39.5927C31.5018 39.1933 33.5442 38.6843 35.4674 37.7791C38.2411 36.4728 41.0196 35.1713 43.6917 33.6637C45.6472 32.5603 47.5929 31.4377 49.5499 30.3343C50.1813 29.9784 51.6487 30.1249 52.0804 30.5582C52.6344 31.1155 52.6296 31.6132 52.0594 32.1464C51.9144 32.2801 51.6954 32.3348 51.6406 32.5829ZM38.6502 41.4579C38.9627 41.4338 39.3025 41.4128 39.6424 41.3774C41.3594 41.2002 43.0169 40.7798 44.6646 40.2628C46.2463 39.7667 47.8039 39.2126 49.3148 38.5506C51.3249 37.6695 53.3287 36.7659 55.239 35.6674C56.8014 34.7686 58.367 33.8843 59.8037 32.7891C60.3788 32.3509 60.5012 31.9289 60.1243 31.3716C59.3366 30.2039 58.615 29.3582 57.1412 30.0847C56.8545 30.2264 56.5646 30.3649 56.2811 30.5131C53.6073 31.9128 51.0753 33.559 48.4256 35.0054C45.2525 36.7385 42.0907 38.4797 38.5825 39.4671C38.3812 39.5235 38.146 39.7441 37.993 39.488C37.8223 39.2013 38.1106 39.0773 38.3103 38.9436C39.425 38.193 40.6523 37.6518 41.8523 37.0591C44.1959 35.8994 46.5363 34.7364 48.8654 33.5493C49.8076 33.0693 50.7257 32.5394 51.6326 31.995C52.1577 31.6793 52.2205 31.2685 51.879 30.9029C51.4699 30.4648 50.2586 30.2506 49.7335 30.5486C49.02 30.9528 48.3242 31.3926 47.6106 31.7985C46.132 32.6393 44.6566 33.4849 43.1634 34.2967C40.67 35.6545 38.1364 36.9318 35.5351 38.0754C33.7923 38.8421 32.0012 39.4268 30.1198 39.7312C29.97 39.7554 29.7558 39.6958 29.7429 39.9245C29.7317 40.1436 29.9572 40.1581 30.0973 40.1758C30.5934 40.2402 31.0669 40.4126 31.5405 40.5382C33.8664 41.1519 36.2406 41.3049 38.6502 41.4579ZM39.6875 38.5989C39.9323 38.7052 40.1079 38.6408 40.2931 38.557C41.5366 37.9949 42.8026 37.4795 44.0493 36.9286C46.4332 35.8752 48.5899 34.4336 50.8884 33.2465C51.0125 33.1821 51.1848 33.1064 51.0704 32.9421C50.9512 32.773 50.8304 32.9517 50.7145 33.0097C49.5564 33.5799 48.3966 34.1453 47.2401 34.7187C46.2963 35.1874 45.3637 35.6787 44.4117 36.1313C42.8187 36.8916 41.2257 37.6534 39.6875 38.5989Z" fill="white"/>
<path d="M31.6033 52.6944C29.6334 52.4609 27.6442 52.593 25.6662 52.2628C24.4083 52.0518 23.1342 51.8859 21.9133 51.5508C19.8821 50.9935 17.9831 50.098 16.2741 48.8368C15.0146 47.9074 13.7566 46.9764 12.6951 45.8135C11.6159 44.6312 10.9604 43.2847 10.6656 41.6772C10.4965 40.7542 10.6721 39.9263 10.7574 39.063C10.9314 37.2992 11.3743 35.6064 12.2425 34.044C13.2073 32.3076 14.6087 31.0158 16.337 30.0816C18.0959 29.1313 20.0126 28.5595 21.8859 27.8894C23.1761 27.4288 24.4437 26.8811 25.7629 26.5268C27.3784 26.0935 28.9827 25.6103 30.6739 25.4395C31.9448 25.3107 33.1818 25.2446 34.4366 25.4782C35.4723 25.6715 36.5063 25.9839 36.9477 26.9971C37.6226 28.5466 37.2763 29.7756 35.9313 30.8064C35.1018 31.4427 34.1209 31.7052 33.1625 32.0402C30.8882 32.8343 28.5269 33.4029 26.5054 34.8268C24.8383 36.0026 25.0509 37.4893 25.9513 38.7924C26.8243 40.0568 28.1322 40.7011 29.5303 41.1843C31.6033 41.901 33.744 42.2039 35.9249 42.4487C37.7305 42.6516 39.491 42.5856 41.2563 42.3617C42.6786 42.1813 44.0799 41.8221 45.4571 41.4001C46.9824 40.9314 48.4724 40.366 49.9365 39.7362C50.9802 39.2869 51.9966 38.7779 53.0194 38.2818C55.1117 37.2686 57.0849 36.059 59.058 34.8461C60.4223 34.0069 61.7881 33.1677 63.1057 32.2593C63.8708 31.731 64.5554 31.8808 65.2254 32.3076C66.6783 33.2338 67.0391 34.4563 66.8893 36.1347C66.7363 37.8485 65.7666 38.9373 64.4652 39.936C60.9232 42.6532 57.0591 44.8406 53.203 47.0553C51.3555 48.1168 49.4211 48.9817 47.4286 49.7017C46.2898 50.1125 45.1237 50.47 43.9446 50.7809C42.1326 51.2593 40.3173 51.6926 38.4666 51.989C36.7673 52.2612 35.0776 52.5769 33.3461 52.5801C32.7663 52.5785 32.1912 52.7379 31.6033 52.6944Z" fill="white"/>
<path d="M38.6502 41.4577C36.2406 41.3046 33.868 41.1516 31.5421 40.5363C31.0686 40.4107 30.595 40.2384 30.0989 40.1739C29.9588 40.1562 29.7333 40.1417 29.7445 39.9227C29.7558 39.6939 29.9717 39.7535 30.1215 39.7294C32.0028 39.4249 33.7939 38.8403 35.5367 38.0736C38.138 36.9299 40.67 35.651 43.165 34.2948C44.6582 33.4814 46.1352 32.6374 47.6122 31.7966C48.3258 31.3907 49.02 30.951 49.7351 30.5467C50.2602 30.2487 51.4715 30.4629 51.8806 30.901C52.2221 31.2651 52.1593 31.6774 51.6342 31.9931C50.7274 32.5375 49.8092 33.0674 48.867 33.5474C46.5379 34.7345 44.1975 35.8991 41.8539 37.0572C40.6539 37.6499 39.4282 38.1911 38.3119 38.9417C38.1122 39.0754 37.8239 39.1994 37.9946 39.4861C38.1476 39.7439 38.3828 39.5216 38.5842 39.4652C42.0923 38.4778 45.2525 36.7367 48.4272 35.0035C51.0769 33.5571 53.6089 31.9109 56.2827 30.5112C56.5662 30.3631 56.8545 30.2245 57.1428 30.0828C58.6166 29.3564 59.3382 30.202 60.1259 31.3698C60.5028 31.9287 60.3788 32.3507 59.8053 32.7872C58.3702 33.8825 56.803 34.7667 55.2406 35.6655C53.3303 36.764 51.3265 37.6676 49.3164 38.5487C47.8055 39.2107 46.2463 39.7648 44.6662 40.2609C43.0185 40.7779 41.361 41.1983 39.644 41.3755C39.3025 41.4126 38.9627 41.4335 38.6502 41.4577Z" fill="white"/>
</svg>
