<svg width="53" height="51" viewBox="0 0 53 51" fill="none" xmlns="http://www.w3.org/2000/svg">
<path d="M25.5 50.9167C21.984 50.9167 18.6799 50.2495 15.5875 48.9151C12.4951 47.5808 9.80521 45.7698 7.51771 43.4823C5.23021 41.1948 3.41927 38.5049 2.08489 35.4125C0.75052 32.3202 0.0833321 29.016 0.0833321 25.5C0.0833321 21.9841 0.75052 18.6799 2.08489 15.5875C3.41927 12.4952 5.23021 9.80525 7.51771 7.51775C9.80521 5.23025 12.4951 3.41931 15.5875 2.08494C18.6799 0.750562 21.984 0.083374 25.5 0.083374C31.6847 0.083374 37.0964 2.0214 41.7349 5.89744C46.3734 9.77348 49.2646 14.6344 50.4083 20.4803H45.1979C44.3931 17.3879 42.9422 14.6238 40.8453 12.1881C38.7484 9.7523 36.175 7.92018 33.125 6.69171V7.70837C33.125 9.10629 32.6273 10.303 31.6318 11.2985C30.6363 12.294 29.4396 12.7917 28.0417 12.7917H22.9583V17.875C22.9583 18.5952 22.7148 19.1988 22.2276 19.686C21.7404 20.1731 21.1368 20.4167 20.4167 20.4167H15.3333V25.5H20.4167V33.125H17.875L5.675 20.925C5.54792 21.6875 5.43142 22.45 5.32552 23.2125C5.21962 23.975 5.16667 24.7375 5.16667 25.5C5.16667 31.0493 7.11528 35.815 11.0125 39.7969C14.9097 43.7789 19.7389 45.791 25.5 45.8334V50.9167ZM48.6292 49.6459L40.4958 41.5125C39.6062 42.0209 38.6531 42.4445 37.6365 42.7834C36.6198 43.1223 35.5396 43.2917 34.3958 43.2917C31.2187 43.2917 28.5182 42.1797 26.2943 39.9558C24.0703 37.7318 22.9583 35.0313 22.9583 31.8542C22.9583 28.6771 24.0703 25.9766 26.2943 23.7526C28.5182 21.5287 31.2187 20.4167 34.3958 20.4167C37.5729 20.4167 40.2734 21.5287 42.4974 23.7526C44.7214 25.9766 45.8333 28.6771 45.8333 31.8542C45.8333 32.998 45.6639 34.0782 45.325 35.0948C44.9861 36.1115 44.5625 37.0646 44.0542 37.9542L52.1875 46.0875L48.6292 49.6459ZM34.3958 38.2084C36.175 38.2084 37.6788 37.5941 38.9073 36.3657C40.1358 35.1372 40.75 33.6334 40.75 31.8542C40.75 30.075 40.1358 28.5712 38.9073 27.3428C37.6788 26.1143 36.175 25.5 34.3958 25.5C32.6167 25.5 31.1128 26.1143 29.8844 27.3428C28.6559 28.5712 28.0417 30.075 28.0417 31.8542C28.0417 33.6334 28.6559 35.1372 29.8844 36.3657C31.1128 37.5941 32.6167 38.2084 34.3958 38.2084Z" fill="#FF9900"/>
</svg>
