<svg width="57" height="51" viewBox="0 0 57 51" fill="none" xmlns="http://www.w3.org/2000/svg">
<path d="M25.65 51V45.3333H48.45V25.2167C48.45 19.6917 46.5144 15.0049 42.6431 11.1562C38.7719 7.30764 34.0575 5.38333 28.5 5.38333C22.9425 5.38333 18.2281 7.30764 14.3569 11.1562C10.4856 15.0049 8.55 19.6917 8.55 25.2167V42.5H5.7C4.1325 42.5 2.79063 41.9451 1.67437 40.8354C0.558125 39.7257 0 38.3917 0 36.8333V31.1667C0 30.175 0.249375 29.2424 0.748125 28.3687C1.24687 27.4951 1.9475 26.7986 2.85 26.2792L3.06375 22.525C3.44375 19.3139 4.38188 16.3389 5.87812 13.6C7.37437 10.8611 9.25062 8.47639 11.5069 6.44583C13.7631 4.41528 16.3519 2.83333 19.2731 1.7C22.1944 0.566667 25.27 0 28.5 0C31.73 0 34.7938 0.566667 37.6912 1.7C40.5887 2.83333 43.1775 4.40347 45.4575 6.41042C47.7375 8.41736 49.6138 10.7903 51.0863 13.5292C52.5588 16.2681 53.5088 19.2431 53.9362 22.4542L54.15 26.1375C55.0525 26.5625 55.7531 27.2 56.2519 28.05C56.7506 28.9 57 29.7972 57 30.7417V37.2583C57 38.2028 56.7506 39.1 56.2519 39.95C55.7531 40.8 55.0525 41.4375 54.15 41.8625V45.3333C54.15 46.8917 53.5919 48.2257 52.4756 49.3354C51.3594 50.4451 50.0175 51 48.45 51H25.65ZM19.95 31.1667C19.1425 31.1667 18.4656 30.8951 17.9194 30.3521C17.3731 29.809 17.1 29.1361 17.1 28.3333C17.1 27.5306 17.3731 26.8576 17.9194 26.3146C18.4656 25.7715 19.1425 25.5 19.95 25.5C20.7575 25.5 21.4344 25.7715 21.9806 26.3146C22.5269 26.8576 22.8 27.5306 22.8 28.3333C22.8 29.1361 22.5269 29.809 21.9806 30.3521C21.4344 30.8951 20.7575 31.1667 19.95 31.1667ZM37.05 31.1667C36.2425 31.1667 35.5656 30.8951 35.0194 30.3521C34.4731 29.809 34.2 29.1361 34.2 28.3333C34.2 27.5306 34.4731 26.8576 35.0194 26.3146C35.5656 25.7715 36.2425 25.5 37.05 25.5C37.8575 25.5 38.5344 25.7715 39.0806 26.3146C39.6269 26.8576 39.9 27.5306 39.9 28.3333C39.9 29.1361 39.6269 29.809 39.0806 30.3521C38.5344 30.8951 37.8575 31.1667 37.05 31.1667ZM11.4712 26.775C11.1388 21.7694 12.6587 17.4722 16.0312 13.8833C19.4037 10.2944 23.6075 8.5 28.6425 8.5C32.87 8.5 36.5869 9.83403 39.7931 12.5021C42.9994 15.1701 44.935 18.5819 45.6 22.7375C41.2775 22.6903 37.2994 21.5333 33.6656 19.2667C30.0319 17 27.2412 13.9306 25.2937 10.0583C24.5338 13.8361 22.9306 17.2007 20.4844 20.1521C18.0381 23.1035 15.0337 25.3111 11.4712 26.775Z" fill="black"/>
</svg>
