<svg width="42" height="41" viewBox="0 0 42 41" fill="none" xmlns="http://www.w3.org/2000/svg">
<path d="M41.681 19.3032C41.6827 19.9893 41.6844 20.6761 41.6861 21.3621C41.5398 21.3932 41.5077 21.5057 41.5195 21.6266C41.5635 22.1035 41.3479 22.5486 41.3589 23.023C41.3623 23.1741 41.2786 23.332 41.2634 23.4789C41.2177 23.9013 41.0714 24.3035 41.0224 24.7199C40.9725 25.1473 40.9007 25.5713 40.7705 25.9744C40.5718 26.589 40.3291 27.1902 40.0882 27.7923C39.5961 29.0207 38.9578 30.171 38.2095 31.2525C37.2981 32.57 36.2337 33.769 35.0204 34.8253C33.9729 35.7363 32.8459 36.5365 31.6589 37.2671C30.87 37.7524 30.0212 38.0874 29.1901 38.4703C28.1536 38.9481 27.0485 39.2142 25.9537 39.5115C25.3838 39.666 24.7996 39.713 24.2154 39.7676C23.8797 39.7986 23.5678 39.9531 23.2406 39.9809C22.5794 40.038 21.9132 40.0606 21.2486 40.0615C16.3458 40.0707 11.4421 40.0707 6.53923 40.0732C6.21203 40.0732 5.88399 40.0724 5.5568 40.0665C5.47732 40.0648 5.36995 40.1018 5.32937 40.0052C5.28117 39.891 5.40208 39.8465 5.45957 39.7793C5.48662 39.7483 5.52551 39.7273 5.55764 39.7004C6.46313 38.959 7.31368 38.1596 8.05092 37.2536C8.64951 36.5189 8.70278 35.8237 7.95116 35.2393C6.918 34.4349 6.02011 33.486 5.20339 32.4675C3.78555 30.7 2.69659 28.7486 1.95765 26.6083C1.31763 24.7527 0.956616 22.8458 0.927025 20.8827C0.915188 20.1186 0.915189 19.3545 0.996354 18.5895C1.1367 17.2746 1.38358 15.9866 1.7522 14.7145C1.90185 14.1981 2.21636 13.7615 2.34656 13.2409C2.42096 12.9445 2.53595 12.6455 2.69658 12.3861C3.04661 11.8201 3.26812 11.1912 3.64351 10.632C3.88277 10.2768 4.06455 9.8696 4.31396 9.51106C4.91678 8.64537 5.5644 7.81242 6.29742 7.05084C6.78526 6.54368 7.27309 6.02897 7.81335 5.58143C8.5024 5.01045 9.22866 4.48062 9.99888 4.01713C10.8291 3.51669 11.607 2.94656 12.5361 2.59641C13.3841 2.27734 14.2101 1.89445 15.0801 1.6308C15.5494 1.4889 16.0228 1.33104 16.5056 1.27562C16.9841 1.22104 17.4407 1.07578 17.9234 1.03296C18.5744 0.97502 19.2111 0.770982 19.8739 0.765944C20.0117 0.765104 20.158 0.776857 20.2011 0.59549C20.9544 0.600527 21.7069 0.606405 22.4602 0.611443C22.4957 0.753347 22.6158 0.728997 22.7155 0.732355C23.0393 0.74495 23.3581 0.779377 23.6777 0.845711C23.9076 0.893572 24.1469 0.967463 24.3895 0.893572C24.4284 0.90029 24.4673 0.907006 24.5062 0.913724C24.5519 0.935555 24.595 0.969142 24.6432 0.977539C25.3475 1.09677 26.056 1.18913 26.7433 1.39233C26.8431 1.42172 26.9496 1.43935 27.0536 1.39653C27.0917 1.40409 27.1297 1.41081 27.1678 1.41836C27.2024 1.49477 27.2768 1.51409 27.347 1.53424C28.4453 1.8424 29.497 2.27314 30.515 2.7803C32.9558 3.99446 35.0847 5.6083 36.8678 7.6722C38.4074 9.45481 39.6062 11.4289 40.4272 13.6338C40.5608 13.9915 40.6166 14.3845 40.8558 14.701C40.8635 14.738 40.8719 14.7758 40.8795 14.8127C40.8372 15.0142 40.8998 15.2065 40.9514 15.3946C41.2625 16.5223 41.3606 17.6835 41.5111 18.8372C41.5348 19.001 41.4806 19.1991 41.681 19.3032ZM17.2564 27.6294C18.2379 27.6252 19.0251 27.6 19.8139 27.495C20.8809 27.3531 21.9402 27.176 22.9852 26.9299C24.1139 26.6638 25.2206 26.3212 26.3045 25.9072C27.3918 25.4916 28.4537 25.0172 29.4573 24.4353C30.1362 24.0423 30.7982 23.6141 31.4788 23.2194C32.2659 22.7627 33.0048 22.227 33.8199 21.813C34.2891 21.5745 34.6544 21.1841 35.083 20.8852C35.373 20.6828 35.5683 20.399 35.7915 20.137C36.2032 19.6551 36.1906 19.053 36.276 18.4787C36.385 17.744 35.7382 16.8455 35.0669 16.5542C34.8065 16.4417 34.492 16.3409 34.213 16.4778C33.8892 16.6365 33.5899 16.8472 33.2889 17.0471C32.8358 17.3485 32.4063 17.6886 31.937 17.9623C30.8717 18.5837 29.8301 19.2461 28.7116 19.776C27.9498 20.137 27.199 20.5216 26.4102 20.8247C25.5394 21.1597 24.6533 21.4284 23.747 21.656C22.9514 21.855 22.1499 22.0263 21.3374 22.0456C19.9204 22.0792 18.5169 21.8936 17.1448 21.5435C16.2545 21.3159 15.3904 20.9826 14.7825 20.2479C14.364 19.7416 14.1882 19.3654 14.5018 18.8297C14.7115 18.4711 15.0615 18.2243 15.4234 18.037C16.4836 17.487 17.6368 17.1781 18.7689 16.8128C19.2068 16.6717 19.6431 16.4996 20.0109 16.2141C20.5587 15.7884 20.7067 15.1998 20.6501 14.539C20.6036 13.9907 20.3237 13.5759 19.8367 13.3509C19.2068 13.0603 18.5102 13.0007 17.8287 13.0217C17.171 13.0419 16.514 13.1401 15.8647 13.282C15.1444 13.439 14.4469 13.6699 13.7502 13.8983C12.4296 14.3307 11.114 14.7825 9.84838 15.3577C8.52692 15.958 7.4963 16.8716 6.93406 18.231C6.58658 19.069 6.43693 19.954 6.349 20.8575C6.25853 21.7878 6.47075 22.6216 6.98056 23.3899C7.41598 24.0448 8.00188 24.5554 8.60808 25.0482C9.99718 26.1768 11.5571 26.9576 13.3241 27.2801C14.6828 27.5294 16.0592 27.6613 17.2564 27.6294ZM28.0276 17.0076C28.0563 16.8783 28.1713 16.8497 28.2457 16.7809C28.545 16.503 28.5484 16.2435 28.2567 15.953C28.0301 15.7271 27.2599 15.6507 26.9285 15.8363C25.9021 16.4114 24.8808 16.9967 23.8535 17.5719C22.4509 18.3578 20.9925 19.0362 19.5366 19.7172C18.5271 20.1891 17.4559 20.4544 16.3661 20.6627C16.2773 20.6795 16.1556 20.6685 16.1505 20.797C16.1463 20.9011 16.2359 20.9599 16.3238 21.0019C16.3805 21.0288 16.4422 21.0456 16.5022 21.0649C17.2242 21.3017 17.9674 21.4284 18.7173 21.5477C19.9923 21.7517 21.2647 21.9087 22.5447 21.6459C23.8248 21.3831 25.0685 21.0069 26.2834 20.5132C27.2785 20.1093 28.2516 19.6635 29.2222 19.2109C30.2723 18.7205 31.2226 18.0572 32.2067 17.4535C32.6878 17.1587 32.9127 16.7448 32.7098 16.4081C32.1797 15.5264 31.6462 15.047 30.624 15.6339C29.8639 16.0705 29.0709 16.4501 28.3396 16.9371C28.2601 16.9908 28.1705 17.0706 28.0276 17.0076Z" fill="#FD6901"/>
</svg>
