<svg width="77" height="66" viewBox="0 0 77 66" fill="none" xmlns="http://www.w3.org/2000/svg">
<path d="M46.5207 27.5008C46.5207 25.3241 49.8983 24.7471 50.7944 26.7838C52.9621 31.7105 54.5415 36.1178 54.5415 38.5006C54.5415 46.0945 47.3594 52.2506 38.4998 52.2506C29.6403 52.2506 22.4582 46.0945 22.4582 38.5006C22.4582 35.9406 24.2812 31.0438 26.6982 25.6767C29.8291 18.7242 31.3945 15.2479 33.327 15.0607C33.9453 15.0007 34.6199 15.1085 35.1716 15.3552C36.8957 16.1263 36.8957 19.9178 36.8957 27.5008C36.8957 29.779 39.0503 31.6258 41.7082 31.6258C44.366 31.6258 46.5207 29.779 46.5207 27.5008Z" stroke="#FF9900" stroke-width="2"/>
<path d="M35.2918 52.25L34.8196 51.2381C34.1105 49.7186 33.7559 48.9588 33.5898 48.2064C33.2084 46.4796 33.4947 44.6723 34.3913 43.1479C34.7819 42.4838 35.354 41.8709 36.4982 40.645V40.645C36.9969 40.1107 37.2462 39.8435 37.5114 39.6927C38.1245 39.344 38.8759 39.344 39.4889 39.6927C39.7541 39.8435 40.0035 40.1107 40.5022 40.645V40.645C41.6463 41.8709 42.2184 42.4838 42.609 43.1479C43.5056 44.6723 43.792 46.4796 43.4106 48.2064C43.2444 48.9588 42.8898 49.7186 42.1807 51.2381L41.7085 52.25" stroke="#FF6B04" stroke-width="2"/>
</svg>
