<?xml version="1.0" encoding="UTF-8" standalone="no" ?>
<!DOCTYPE svg PUBLIC "-//W3C//DTD SVG 1.1//EN" "http://www.w3.org/Graphics/SVG/1.1/DTD/svg11.dtd">
<svg xmlns="http://www.w3.org/2000/svg" xmlns:xlink="http://www.w3.org/1999/xlink" version="1.1" width="1080" height="1080" viewBox="0 0 1080 1080" xml:space="preserve">
<desc>Created with Fabric.js 5.2.4</desc>
<defs>
</defs>
<g transform="matrix(1 0 0 1 540 540)" id="32b533a4-7bf0-4932-ba0f-ad0887480185"  >
<rect style="stroke: none; stroke-width: 1; stroke-dasharray: none; stroke-linecap: butt; stroke-dashoffset: 0; stroke-linejoin: miter; stroke-miterlimit: 4; fill: rgb(255,255,255); fill-rule: nonzero; opacity: 1; visibility: hidden;" vector-effect="non-scaling-stroke"  x="-540" y="-540" rx="0" ry="0" width="1080" height="1080" />
</g>
<g transform="matrix(1 0 0 1 540 540)" id="d412071c-b0f9-408e-8e5e-31781c6b3d25"  >
</g>
<g transform="matrix(0 1 -1 0 104.62 540)" id="5187d8fd-e6dc-4401-b349-0da833f0da38"  >
<path style="stroke: rgb(0,0,0); stroke-width: 0; stroke-dasharray: none; stroke-linecap: butt; stroke-dashoffset: 0; stroke-linejoin: miter; stroke-miterlimit: 4; fill: rgb(255,153,0); fill-rule: nonzero; opacity: 1;" vector-effect="non-scaling-stroke"  transform=" translate(-720, -207.89)" d="M 0 160 L 48 165.3 C 96 171 192 181 288 197.3 C 384 213 480 235 576 224 C 672 213 768 171 864 138.7 C 960 107 1056 85 1152 101.3 C 1248 117 1344 171 1392 197.3 L 1440 224 L 1440 320 L 1392 320 C 1344 320 1248 320 1152 320 C 1056 320 960 320 864 320 C 768 320 672 320 576 320 C 480 320 384 320 288 320 C 192 320 96 320 48 320 L 0 320 Z" stroke-linecap="round" />
</g>
</svg>